<svg width="50" height="51" viewBox="0 0 50 51" fill="none" xmlns="http://www.w3.org/2000/svg">
<g id="Group 39512">
<g id="App Logo">
<g id="BG Container" filter="url(#filter0_d_1_212)">
<rect x="5" y="3" width="40" height="40" rx="10" fill="white"/>
</g>
</g>
<g id="Group 29">
<g id="Black">
<path id="Vector" d="M25.0476 14.8971C24.9811 14.947 24.9561 15.0301 24.9894 15.1216C25.0393 15.2546 25.0559 15.2546 25.1806 15.1299C25.3469 14.9719 25.2305 14.789 25.0476 14.8971Z" fill="#4A3AFF"/>
<path id="Vector_2" d="M25.4217 14.8803C25.322 14.9801 25.3718 15.1547 25.4966 15.1547C25.5631 15.1547 25.6213 15.1048 25.6213 15.0383C25.6213 14.8969 25.5049 14.8055 25.4217 14.8803Z" fill="#4A3AFF"/>
<path id="Vector_3" d="M29.4462 19.0461C29.4462 19.0794 29.546 19.2041 29.6624 19.3205C30.286 19.9026 30.5272 20.8754 30.2112 21.5822C29.704 22.738 28.2156 23.7358 24.7066 25.2741C21.6966 26.6045 17.6389 28.5918 16.2253 29.4316C15.0446 30.1384 14.7619 30.5957 15.186 31.1029C15.4354 31.4022 16.1172 31.7515 16.5995 31.8346C16.8739 31.8762 16.9155 31.8679 16.8323 31.7764C16.5413 31.4771 16.8822 30.9366 17.7387 30.3629C18.778 29.6561 21.2393 28.4587 23.7837 27.4194C25.1141 26.8789 25.4883 26.7791 24.9395 27.1034C24.7898 27.1948 24.1412 27.5773 23.501 27.9598C20.9399 29.4732 19.6345 30.3047 19.3934 30.5791C19.0774 30.9366 18.9942 31.2359 19.1439 31.4272C19.3102 31.6268 19.859 31.8429 20.3496 31.9095C20.7653 31.9594 20.7736 31.9594 20.7404 31.7681C20.6656 31.3607 21.6384 30.629 23.4095 29.7891C25.2139 28.9244 26.9184 28.2342 27.0099 28.3257C27.0349 28.3423 26.8686 28.467 26.644 28.5918C23.9334 30.1384 22.736 30.9449 22.6528 31.2692C22.4366 32.1506 25.4301 32.1672 27.9744 31.2942C31.3753 30.13 33.3958 27.5191 33.2462 24.4675C33.1547 22.6715 32.3648 21.0916 30.9928 19.9608C30.4357 19.5035 29.4462 18.9131 29.4462 19.0461Z" fill="#4A3AFF"/>
</g>
<path id="Vector_4" d="M20.7203 26.3936C20.7203 26.3603 20.6205 26.2356 20.5041 26.1192C19.8805 25.5371 19.6393 24.5643 19.9553 23.8575C20.4625 22.7017 21.9509 21.7039 25.4599 20.1656C28.4699 18.8352 32.5276 16.8479 33.9412 16.0081C35.1219 15.3013 35.4046 14.844 34.9805 14.3368C34.7311 14.0375 34.0493 13.6882 33.567 13.6051C33.2926 13.5635 33.251 13.5718 33.3342 13.6633C33.6252 13.9626 33.2843 14.5031 32.4278 15.0768C31.3885 15.7836 28.9272 16.981 26.3828 18.0203C25.0524 18.5608 24.6782 18.6606 25.227 18.3363C25.3767 18.2448 26.0253 17.8624 26.6655 17.4799C29.2266 15.9665 30.532 15.135 30.7731 14.8606C31.0891 14.5031 31.1723 14.2038 31.0226 14.0125C30.8563 13.8129 30.3075 13.5968 29.8169 13.5302C29.4012 13.4803 29.3929 13.4803 29.4261 13.6716C29.501 14.079 28.5281 14.8107 26.757 15.6506C24.9526 16.5153 23.2481 17.2055 23.1566 17.114C23.1317 17.0974 23.298 16.9727 23.5225 16.8479C26.2332 15.3013 27.4305 14.4948 27.5137 14.1705C27.7299 13.2891 24.7365 13.2725 22.1921 14.1455C18.7912 15.3096 16.7707 17.9206 16.9203 20.9722C17.0118 22.7682 17.8017 24.3481 19.1737 25.4789C19.7308 25.9362 20.7203 26.5266 20.7203 26.3936Z" fill="#4A3AFF"/>
</g>
</g>
<defs>
<filter id="filter0_d_1_212" x="-4.76837e-07" y="0.5" width="50" height="50" filterUnits="userSpaceOnUse" color-interpolation-filters="sRGB">
<feFlood flood-opacity="0" result="BackgroundImageFix"/>
<feColorMatrix in="SourceAlpha" type="matrix" values="0 0 0 0 0 0 0 0 0 0 0 0 0 0 0 0 0 0 127 0" result="hardAlpha"/>
<feOffset dy="2.5"/>
<feGaussianBlur stdDeviation="2.5"/>
<feComposite in2="hardAlpha" operator="out"/>
<feColorMatrix type="matrix" values="0 0 0 0 0.375147 0 0 0 0 0.366044 0 0 0 0 0.821217 0 0 0 0.15 0"/>
<feBlend mode="normal" in2="BackgroundImageFix" result="effect1_dropShadow_1_212"/>
<feBlend mode="normal" in="SourceGraphic" in2="effect1_dropShadow_1_212" result="shape"/>
</filter>
</defs>
</svg>
